<?xml version="1.0" standalone="no"?>
<!DOCTYPE svg PUBLIC "-//W3C//DTD SVG 20010904//EN"
 "http://www.w3.org/TR/2001/REC-SVG-20010904/DTD/svg10.dtd">
<svg version="1.0" xmlns="http://www.w3.org/2000/svg"
 width="1280.000000pt" height="1046.000000pt" viewBox="0 0 1280.000000 1046.000000"
 preserveAspectRatio="xMidYMid meet">
<metadata>
Created by potrace 1.15, written by Peter Selinger 2001-2017
</metadata>
<g transform="translate(0.000000,1046.000000) scale(0.100000,-0.100000)"
fill="#000000" stroke="none">
<path d="M10676 9895 c-60 -261 -113 -475 -118 -475 -5 0 -6 5 -2 12 4 6 3 8
-4 4 -8 -5 -324 194 -812 513 -13 9 -22 12 -18 6 3 -5 79 -176 168 -380 89
-203 168 -382 175 -397 15 -32 14 -33 -23 -14 -52 27 -219 66 -322 76 -624 59
-1510 -392 -2662 -1357 l-147 -123 -83 54 c-259 168 -537 271 -683 251 -70 -9
-128 -45 -153 -96 -11 -23 -35 -50 -52 -60 -32 -20 -69 -87 -70 -126 l0 -23
-57 26 c-427 192 -994 323 -1486 342 -721 28 -1373 -105 -2002 -407 -477 -230
-883 -527 -1234 -904 -874 -940 -1251 -2213 -1025 -3461 181 -999 736 -1895
1559 -2518 512 -387 1144 -661 1783 -772 274 -48 417 -60 722 -60 341 -1 549
19 845 80 1174 240 2164 950 2763 1979 317 545 505 1192 530 1819 24 596 -65
1125 -280 1671 -125 318 -371 746 -560 976 -21 26 -38 49 -38 53 0 3 15 12 33
20 42 18 77 52 89 87 5 15 25 37 44 48 40 24 74 88 74 141 0 129 -112 325
-303 526 -68 72 -78 87 -66 98 38 35 270 224 394 322 683 537 1270 871 1699
965 l88 20 268 -157 268 -157 -256 -201 c-141 -111 -317 -248 -390 -305 -73
-57 -131 -105 -129 -108 4 -3 389 30 887 76 52 5 96 8 98 6 5 -4 -20 -95 -144
-534 -63 -222 -112 -406 -110 -408 2 -2 25 16 52 40 27 24 196 170 375 324
l326 281 167 -437 c91 -240 171 -449 177 -466 10 -27 23 21 122 450 60 264
112 482 113 484 4 4 183 -110 579 -368 143 -93 261 -168 262 -167 1 1 -36 90
-84 197 -47 107 -136 309 -198 451 l-112 256 111 7 c61 4 289 14 506 23 l395
17 -437 254 c-426 249 -436 255 -415 271 431 334 765 600 754 600 -12 0 -750
-65 -944 -84 -24 -2 -43 -2 -43 0 0 8 64 239 160 579 55 193 100 355 100 359
0 10 -16 -3 -407 -340 l-349 -301 -142 371 c-78 204 -156 410 -174 458 -18 48
-35 88 -38 88 -3 0 -54 -214 -114 -475z"/>
</g>
</svg>
